<svg xmlns="http://www.w3.org/2000/svg" xmlns:xlink="http://www.w3.org/1999/xlink" width="500" zoomAndPan="magnify" viewBox="0 0 375 374.999991" height="500" preserveAspectRatio="xMidYMid meet" version="1.0"><defs><g/><clipPath id="926f96deff"><path d="M 0.441406 0.480469 L 134 0.480469 L 134 91 L 0.441406 91 Z M 0.441406 0.480469 " clip-rule="nonzero"/></clipPath><clipPath id="7c05ab22c5"><rect x="0" width="134" y="0" height="91"/></clipPath><clipPath id="1f0965ef96"><path d="M 2 45 L 286.28125 45 L 286.28125 135.359375 L 2 135.359375 Z M 2 45 " clip-rule="nonzero"/></clipPath><clipPath id="e632f3697b"><rect x="0" width="285" y="0" height="91"/></clipPath><clipPath id="55b6bc2dbd"><rect x="0" width="287" y="0" height="136"/></clipPath></defs><g transform="matrix(1, 0, 0, 1, 37, 114)"><g clip-path="url(#55b6bc2dbd)"><g clip-path="url(#926f96deff)"><g><g clip-path="url(#7c05ab22c5)"><g fill="#ff8200" fill-opacity="1"><g transform="translate(0.500002, 71.693905)"><g><path d="M 24.640625 -19 C 25.742188 -19.601562 26.394531 -20.441406 26.59375 -21.515625 C 26.789062 -22.597656 26.550781 -23.578125 25.875 -24.453125 C 25.195312 -25.328125 24.082031 -25.765625 22.53125 -25.765625 C 21.226562 -25.816406 20.238281 -25.453125 19.5625 -24.671875 C 18.894531 -23.898438 18.546875 -23 18.515625 -21.96875 C 18.492188 -20.945312 18.796875 -20.035156 19.421875 -19.234375 C 20.046875 -18.429688 21.035156 -18.03125 22.390625 -18.03125 L 43.640625 -18.03125 L 43.640625 0 L 22.390625 0 C 19.378906 0 16.570312 -0.5625 13.96875 -1.6875 C 11.363281 -2.8125 9.0625 -4.375 7.0625 -6.375 C 5.0625 -8.382812 3.492188 -10.691406 2.359375 -13.296875 C 1.234375 -15.898438 0.671875 -18.707031 0.671875 -21.71875 C 0.671875 -25.664062 1.5625 -29.265625 3.34375 -32.515625 C 5.125 -35.773438 7.648438 -38.394531 10.921875 -40.375 C 14.203125 -42.351562 18.097656 -43.367188 22.609375 -43.421875 C 24.960938 -43.421875 27.328125 -43.191406 29.703125 -42.734375 C 32.085938 -42.285156 34.332031 -41.4375 36.4375 -40.1875 C 38.539062 -38.9375 40.289062 -37.082031 41.6875 -34.625 C 42.289062 -33.582031 42.726562 -32.332031 43 -30.875 C 43.28125 -29.425781 43.382812 -27.9375 43.3125 -26.40625 C 43.238281 -24.875 42.925781 -23.445312 42.375 -22.125 C 41.820312 -20.800781 40.96875 -19.757812 39.8125 -19 Z M 24.640625 -19 "/></g></g></g><g fill="#ff8200" fill-opacity="1"><g transform="translate(44.815573, 71.693905)"><g><path d="M 42.96875 0 L 25.015625 0 L 25.015625 -21.328125 C 25.015625 -22.484375 24.722656 -23.347656 24.140625 -23.921875 C 23.566406 -24.503906 22.890625 -24.796875 22.109375 -24.796875 C 21.335938 -24.796875 20.664062 -24.519531 20.09375 -23.96875 C 19.519531 -23.414062 19.234375 -22.5625 19.234375 -21.40625 L 19.234375 0 L 0.75 0 L 0.75 -22.15625 C 0.75 -26.113281 1.363281 -29.441406 2.59375 -32.140625 C 3.820312 -34.847656 5.472656 -37.03125 7.546875 -38.6875 C 9.628906 -40.34375 11.929688 -41.546875 14.453125 -42.296875 C 16.984375 -43.046875 19.550781 -43.421875 22.15625 -43.421875 C 24.257812 -43.421875 26.335938 -43.054688 28.390625 -42.328125 C 30.453125 -41.609375 32.332031 -40.394531 34.03125 -38.6875 C 35.476562 -40.289062 37.265625 -41.46875 39.390625 -42.21875 C 41.523438 -42.96875 43.617188 -43.367188 45.671875 -43.421875 C 48.328125 -43.421875 50.929688 -43.03125 53.484375 -42.25 C 56.046875 -41.476562 58.363281 -40.253906 60.4375 -38.578125 C 62.519531 -36.898438 64.1875 -34.707031 65.4375 -32 C 66.6875 -29.300781 67.3125 -26.019531 67.3125 -22.15625 L 67.3125 0 L 48.828125 0 L 48.828125 -21.40625 C 48.828125 -22.5625 48.523438 -23.414062 47.921875 -23.96875 C 47.328125 -24.519531 46.65625 -24.796875 45.90625 -24.796875 C 45.15625 -24.796875 44.476562 -24.503906 43.875 -23.921875 C 43.269531 -23.347656 42.96875 -22.484375 42.96875 -21.328125 Z M 42.96875 0 "/></g></g></g><g fill="#ff8200" fill-opacity="1"><g transform="translate(112.86625, 71.693905)"><g><path d="M 0.75 -42.140625 L 19.234375 -42.140625 L 19.234375 0 L 0.75 0 Z M 0.75 -42.140625 "/></g></g></g></g></g></g><g clip-path="url(#1f0965ef96)"><g transform="matrix(1, 0, 0, 1, 2, 45)"><g clip-path="url(#e632f3697b)"><g fill="#ff8200" fill-opacity="1"><g transform="translate(0.802813, 71.466105)"><g><path d="M 22.984375 -43.34375 C 25.992188 -43.34375 28.835938 -42.78125 31.515625 -41.65625 C 34.191406 -40.53125 36.546875 -38.976562 38.578125 -37 C 40.609375 -35.019531 42.222656 -32.703125 43.421875 -30.046875 C 44.617188 -27.390625 45.242188 -24.5625 45.296875 -21.5625 L 26.75 -21.5625 C 26.644531 -22.507812 26.238281 -23.296875 25.53125 -23.921875 C 24.832031 -24.546875 23.984375 -24.859375 22.984375 -24.859375 C 21.929688 -24.859375 21.03125 -24.484375 20.28125 -23.734375 C 19.53125 -22.984375 19.15625 -22.082031 19.15625 -21.03125 C 19.15625 -19.976562 19.53125 -19.078125 20.28125 -18.328125 C 21.03125 -17.578125 21.929688 -17.203125 22.984375 -17.203125 C 23.984375 -17.203125 24.832031 -17.515625 25.53125 -18.140625 C 26.238281 -18.765625 26.644531 -19.554688 26.75 -20.515625 L 45.296875 -20.515625 C 45.242188 -17.503906 44.617188 -14.671875 43.421875 -12.015625 C 42.222656 -9.359375 40.609375 -7.015625 38.578125 -4.984375 C 36.546875 -2.960938 34.191406 -1.375 31.515625 -0.21875 C 28.835938 0.925781 25.992188 1.5 22.984375 1.5 C 19.929688 1.5 17.050781 0.910156 14.34375 -0.265625 C 11.644531 -1.441406 9.265625 -3.066406 7.203125 -5.140625 C 5.148438 -7.222656 3.546875 -9.628906 2.390625 -12.359375 C 1.242188 -15.085938 0.671875 -17.976562 0.671875 -21.03125 C 0.671875 -24.132812 1.242188 -27.023438 2.390625 -29.703125 C 3.546875 -32.390625 5.148438 -34.757812 7.203125 -36.8125 C 9.265625 -38.863281 11.644531 -40.460938 14.34375 -41.609375 C 17.050781 -42.765625 19.929688 -43.34375 22.984375 -43.34375 Z M 22.984375 -43.34375 "/></g></g></g><g fill="#ff8200" fill-opacity="1"><g transform="translate(46.770826, 71.466105)"><g><path d="M 22.46875 -43.421875 C 25.46875 -43.421875 28.269531 -42.859375 30.875 -41.734375 C 33.476562 -40.609375 35.78125 -39.054688 37.78125 -37.078125 C 39.789062 -35.097656 41.359375 -32.789062 42.484375 -30.15625 C 43.609375 -27.53125 44.171875 -24.71875 44.171875 -21.71875 L 44.171875 0 L 26.140625 0 L 26.140625 -21.71875 C 26.140625 -22.71875 25.773438 -23.59375 25.046875 -24.34375 C 24.328125 -25.09375 23.46875 -25.46875 22.46875 -25.46875 C 21.414062 -25.46875 20.523438 -25.09375 19.796875 -24.34375 C 19.066406 -23.59375 18.703125 -22.71875 18.703125 -21.71875 C 18.703125 -20.707031 19.066406 -19.828125 19.796875 -19.078125 C 20.523438 -18.328125 21.414062 -17.953125 22.46875 -17.953125 L 25.09375 -17.953125 L 25.09375 0 L 22.46875 0 C 19.457031 0 16.632812 -0.5625 14 -1.6875 C 11.375 -2.8125 9.070312 -4.375 7.09375 -6.375 C 5.113281 -8.382812 3.5625 -10.691406 2.4375 -13.296875 C 1.3125 -15.898438 0.75 -18.707031 0.75 -21.71875 C 0.75 -24.71875 1.3125 -27.53125 2.4375 -30.15625 C 3.5625 -32.789062 5.113281 -35.097656 7.09375 -37.078125 C 9.070312 -39.054688 11.375 -40.609375 14 -41.734375 C 16.632812 -42.859375 19.457031 -43.421875 22.46875 -43.421875 Z M 22.46875 -43.421875 "/></g></g></g><g fill="#ff8200" fill-opacity="1"><g transform="translate(91.612171, 71.466105)"><g><path d="M 27.5 -42.140625 L 27.5 -24.484375 L 20.359375 -24.484375 C 19.609375 -24.484375 19.234375 -24.109375 19.234375 -23.359375 L 19.234375 0 L 0.75 0 L 0.75 -22.609375 C 0.75 -26.566406 1.597656 -30 3.296875 -32.90625 C 5.003906 -35.8125 7.375 -38.078125 10.40625 -39.703125 C 13.4375 -41.328125 16.90625 -42.140625 20.8125 -42.140625 Z M 27.5 -42.140625 "/></g></g></g><g fill="#ff8200" fill-opacity="1"><g transform="translate(119.778843, 71.466105)"><g><path d="M 27.5 -42.140625 L 27.5 -24.484375 L 20.359375 -24.484375 C 19.609375 -24.484375 19.234375 -24.109375 19.234375 -23.359375 L 19.234375 0 L 0.75 0 L 0.75 -22.609375 C 0.75 -26.566406 1.597656 -30 3.296875 -32.90625 C 5.003906 -35.8125 7.375 -38.078125 10.40625 -39.703125 C 13.4375 -41.328125 16.90625 -42.140625 20.8125 -42.140625 Z M 27.5 -42.140625 "/></g></g></g><g fill="#ff8200" fill-opacity="1"><g transform="translate(147.945515, 71.466105)"><g><path d="M 22.46875 -43.421875 C 25.46875 -43.421875 28.269531 -42.859375 30.875 -41.734375 C 33.476562 -40.609375 35.78125 -39.054688 37.78125 -37.078125 C 39.789062 -35.097656 41.359375 -32.789062 42.484375 -30.15625 C 43.609375 -27.53125 44.171875 -24.71875 44.171875 -21.71875 L 44.171875 0 L 26.140625 0 L 26.140625 -21.71875 C 26.140625 -22.71875 25.773438 -23.59375 25.046875 -24.34375 C 24.328125 -25.09375 23.46875 -25.46875 22.46875 -25.46875 C 21.414062 -25.46875 20.523438 -25.09375 19.796875 -24.34375 C 19.066406 -23.59375 18.703125 -22.71875 18.703125 -21.71875 C 18.703125 -20.707031 19.066406 -19.828125 19.796875 -19.078125 C 20.523438 -18.328125 21.414062 -17.953125 22.46875 -17.953125 L 25.09375 -17.953125 L 25.09375 0 L 22.46875 0 C 19.457031 0 16.632812 -0.5625 14 -1.6875 C 11.375 -2.8125 9.070312 -4.375 7.09375 -6.375 C 5.113281 -8.382812 3.5625 -10.691406 2.4375 -13.296875 C 1.3125 -15.898438 0.75 -18.707031 0.75 -21.71875 C 0.75 -24.71875 1.3125 -27.53125 2.4375 -30.15625 C 3.5625 -32.789062 5.113281 -35.097656 7.09375 -37.078125 C 9.070312 -39.054688 11.375 -40.609375 14 -41.734375 C 16.632812 -42.859375 19.457031 -43.421875 22.46875 -43.421875 Z M 22.46875 -43.421875 "/></g></g></g><g fill="#ff8200" fill-opacity="1"><g transform="translate(192.786859, 71.466105)"><g><path d="M 45.15625 -52.59375 L 45.15625 -21.03125 C 45.15625 -17.976562 44.578125 -15.097656 43.421875 -12.390625 C 42.265625 -9.691406 40.660156 -7.3125 38.609375 -5.25 C 36.554688 -3.195312 34.191406 -1.59375 31.515625 -0.4375 C 28.835938 0.707031 25.945312 1.28125 22.84375 1.28125 C 19.78125 1.28125 16.894531 0.707031 14.1875 -0.4375 C 11.488281 -1.59375 9.125 -3.195312 7.09375 -5.25 C 5.070312 -7.3125 3.484375 -9.691406 2.328125 -12.390625 C 1.171875 -15.097656 0.59375 -17.976562 0.59375 -21.03125 C 0.59375 -24.132812 1.171875 -27.023438 2.328125 -29.703125 C 3.484375 -32.390625 5.070312 -34.757812 7.09375 -36.8125 C 9.125 -38.863281 11.488281 -40.460938 14.1875 -41.609375 C 16.894531 -42.765625 19.78125 -43.34375 22.84375 -43.34375 L 25.625 -43.34375 L 25.625 -24.859375 L 22.84375 -24.859375 C 21.789062 -24.859375 20.898438 -24.484375 20.171875 -23.734375 C 19.441406 -22.984375 19.078125 -22.082031 19.078125 -21.03125 C 19.078125 -19.976562 19.441406 -19.078125 20.171875 -18.328125 C 20.898438 -17.578125 21.789062 -17.203125 22.84375 -17.203125 C 23.9375 -17.203125 24.847656 -17.578125 25.578125 -18.328125 C 26.304688 -19.078125 26.671875 -19.976562 26.671875 -21.03125 L 26.671875 -52.59375 Z M 45.15625 -52.59375 "/></g></g></g><g fill="#ff8200" fill-opacity="1"><g transform="translate(238.67975, 71.466105)"><g><path d="M 22.46875 -43.421875 C 25.46875 -43.421875 28.269531 -42.859375 30.875 -41.734375 C 33.476562 -40.609375 35.78125 -39.054688 37.78125 -37.078125 C 39.789062 -35.097656 41.359375 -32.789062 42.484375 -30.15625 C 43.609375 -27.53125 44.171875 -24.71875 44.171875 -21.71875 L 44.171875 0 L 26.140625 0 L 26.140625 -21.71875 C 26.140625 -22.71875 25.773438 -23.59375 25.046875 -24.34375 C 24.328125 -25.09375 23.46875 -25.46875 22.46875 -25.46875 C 21.414062 -25.46875 20.523438 -25.09375 19.796875 -24.34375 C 19.066406 -23.59375 18.703125 -22.71875 18.703125 -21.71875 C 18.703125 -20.707031 19.066406 -19.828125 19.796875 -19.078125 C 20.523438 -18.328125 21.414062 -17.953125 22.46875 -17.953125 L 25.09375 -17.953125 L 25.09375 0 L 22.46875 0 C 19.457031 0 16.632812 -0.5625 14 -1.6875 C 11.375 -2.8125 9.070312 -4.375 7.09375 -6.375 C 5.113281 -8.382812 3.5625 -10.691406 2.4375 -13.296875 C 1.3125 -15.898438 0.75 -18.707031 0.75 -21.71875 C 0.75 -24.71875 1.3125 -27.53125 2.4375 -30.15625 C 3.5625 -32.789062 5.113281 -35.097656 7.09375 -37.078125 C 9.070312 -39.054688 11.375 -40.609375 14 -41.734375 C 16.632812 -42.859375 19.457031 -43.421875 22.46875 -43.421875 Z M 22.46875 -43.421875 "/></g></g></g></g></g></g></g></g></svg>